<svg xmlns="http://www.w3.org/2000/svg" xmlns:xlink="http://www.w3.org/1999/xlink" version="1.1" x="0px" y="0px" viewBox="0 0 100 100" enable-background="new 0 0 100 100" xml:space="preserve"><path d="M49.8,12.1c-21.1,0-38.2,17.1-38.2,38.2s17.1,38.2,38.2,38.2C70.9,88.6,88,71.4,88,50.3S70.9,12.1,49.8,12.1z M49.8,84.9  c-19,0-34.5-15.5-34.5-34.5s15.5-34.5,34.5-34.5s34.5,15.5,34.5,34.5S68.9,84.9,49.8,84.9z M61.2,34.8c-0.7,0-1.4,0.3-2,0.9  l-10.3,9.6v-7c0-3.3-2-3.5-2.6-3.5c-0.7,0-1.4,0.3-2,0.9L31.8,47.4c-2.1,1.9-1.6,4-0.6,5.2c0,0.1,0.1,0.1,0.2,0.2L44.5,65  c0.6,0.6,1.2,0.8,1.9,0.8c0.6,0,2.5-0.3,2.5-3.5v-7.1L59.4,65c0.6,0.6,1.2,0.8,1.9,0.8c0.6,0,2.5-0.3,2.5-3.5v-24  C63.8,35.1,61.8,34.8,61.2,34.8z M45.2,60.7L34.2,50.3c0-0.1,0.1-0.1,0.2-0.2L45.2,40V60.7z M60.1,60.7L49,50.3  c0-0.1,0.1-0.1,0.2-0.2L60.1,40V60.7z"></path></svg>